<svg width="57" height="56" viewBox="0 0 57 56" fill="none" xmlns="http://www.w3.org/2000/svg">
<rect x="4.66663" y="4" width="48" height="48" rx="24" fill="#D8EBFF"/>
<rect x="4.66663" y="4" width="48" height="48" rx="24" stroke="#EFF7FF" stroke-width="8"/>
<path d="M28.6666 37L28.5666 36.8499C27.8719 35.808 27.5246 35.287 27.0657 34.9098C26.6595 34.5759 26.1914 34.3254 25.6882 34.1726C25.1199 34 24.4937 34 23.2414 34H21.8666C20.7465 34 20.1865 34 19.7586 33.782C19.3823 33.5903 19.0764 33.2843 18.8846 32.908C18.6666 32.4802 18.6666 31.9201 18.6666 30.8V22.2C18.6666 21.0799 18.6666 20.5198 18.8846 20.092C19.0764 19.7157 19.3823 19.4097 19.7586 19.218C20.1865 19 20.7465 19 21.8666 19H22.2666C24.5068 19 25.6269 19 26.4826 19.436C27.2352 19.8195 27.8472 20.4314 28.2307 21.184C28.6666 22.0397 28.6666 23.1598 28.6666 25.4M28.6666 37V25.4M28.6666 37L28.7667 36.8499C29.4613 35.808 29.8086 35.287 30.2675 34.9098C30.6738 34.5759 31.1419 34.3254 31.645 34.1726C32.2134 34 32.8395 34 34.0918 34H35.4666C36.5867 34 37.1468 34 37.5746 33.782C37.9509 33.5903 38.2569 33.2843 38.4486 32.908C38.6666 32.4802 38.6666 31.9201 38.6666 30.8V22.2C38.6666 21.0799 38.6666 20.5198 38.4486 20.092C38.2569 19.7157 37.9509 19.4097 37.5746 19.218C37.1468 19 36.5867 19 35.4666 19H35.0666C32.8264 19 31.7063 19 30.8507 19.436C30.098 19.8195 29.4861 20.4314 29.1026 21.184C28.6666 22.0397 28.6666 23.1598 28.6666 25.4" stroke="#1771D2" stroke-width="2" stroke-linecap="round" stroke-linejoin="round"/>
</svg>
