<svg width="57" height="56" viewBox="0 0 57 56" fill="none" xmlns="http://www.w3.org/2000/svg">
<rect x="4.33337" y="4" width="48" height="48" rx="24" fill="#E7FFD0"/>
<rect x="4.33337" y="4" width="48" height="48" rx="24" stroke="#F6FFED" stroke-width="8"/>
<path d="M29.3334 18L20.4268 28.6879C20.078 29.1064 19.9036 29.3157 19.9009 29.4925C19.8986 29.6461 19.9671 29.7923 20.0866 29.8889C20.2241 30 20.4965 30 21.0414 30H28.3334L27.3334 38L36.2399 27.3121C36.5887 26.8936 36.7631 26.6843 36.7658 26.5075C36.7681 26.3539 36.6996 26.2077 36.5801 26.1111C36.4426 26 36.1702 26 35.6253 26H28.3334L29.3334 18Z" stroke="#81E129" stroke-width="2" stroke-linecap="round" stroke-linejoin="round"/>
</svg>
